# xmcd
#
# Track frame offsets: 
#        150
#        21436
#        49616
#        68102
#        94418
#        125931
#        153601
#        173708
#        203539
#        233326
#        258194
#        288258
#
# Disc length: 4091 seconds
#
# Revision: 4
# Processed by: cddbd v1.5.2PL0 Copyright (c) Steve Scherf et al.
# Submitted via: ExactAudioCopy v1.3
#
DISCID=a20ff90c
DTITLE=Various Artist - Naim Sampler
DYEAR=2003
DGENRE=Acoustic
TTITLE0=ANTONIO FORCIONE and SABINA SCIUBBA- Could You Believe?
TTITLE1=ACOUSTIC MANIA- Snow
TTITLE2=PATRICK NOLAND- Beyond A Trance
TTITLE3=ALLEGRI QUARTET- Presto from Op 131 in C Sharp Minor by Beetho
TTITLE3=ven
TTITLE4=THE NORWEGIAN CHAMBER ORCHESTRA- Allegro from Shubert's Sympho
TTITLE4=ny #5 in B Flat, D483
TTITLE5=UNION- Late Late Blues
TTITLE6=CHRIS ANDERSON and SABINA SCIUBBA- Ain't Misbehavin'
TTITLE7=KAI ECKHARDT- In The Pocket
TTITLE8=ANTONIO FORCIONE- Alhambra
TTITLE9=SFX- Three-Two-Five
TTITLE10=TED SIROTA and THE REBEL SOULS- Carolynn's Blues
TTITLE11=LEO GREEN- Angels
EXTD=YEAR: 2003
EXTT0=
EXTT1=
EXTT2=
EXTT3=
EXTT4=
EXTT5=
EXTT6=
EXTT7=
EXTT8=
EXTT9=
EXTT10=
EXTT11=
PLAYORDER=
